<svg xmlns="http://www.w3.org/2000/svg" xmlns:xlink="http://www.w3.org/1999/xlink" width="220" zoomAndPan="magnify" viewBox="0 0 165 30.000001" height="40" preserveAspectRatio="xMidYMid meet" version="1.0"><defs><g/><clipPath id="35dfcf7386"><path d="M 146 9 L 162.335938 9 L 162.335938 29 L 146 29 Z M 146 9 " clip-rule="nonzero"/></clipPath><clipPath id="4165aa51cb"><path d="M 3 1.574219 L 21.53125 1.574219 L 21.53125 27.703125 L 3 27.703125 Z M 3 1.574219 " clip-rule="nonzero"/></clipPath></defs><g fill="#000000" fill-opacity="1"><g transform="translate(21.25757, 28.339204)"><g><path d="M 10.8125 -10.75 C 11.3125 -10.601562 11.851562 -10.421875 12.4375 -10.203125 C 13.019531 -9.984375 13.5625 -9.691406 14.0625 -9.328125 C 14.570312 -8.960938 14.988281 -8.46875 15.3125 -7.84375 C 15.644531 -7.226562 15.8125 -6.441406 15.8125 -5.484375 C 15.8125 -4.148438 15.488281 -3.046875 14.84375 -2.171875 C 14.195312 -1.304688 13.3125 -0.65625 12.1875 -0.21875 C 11.0625 0.207031 9.773438 0.421875 8.328125 0.421875 C 7.441406 0.421875 6.550781 0.289062 5.65625 0.03125 C 4.769531 -0.21875 3.957031 -0.585938 3.21875 -1.078125 C 2.476562 -1.578125 1.882812 -2.203125 1.4375 -2.953125 C 0.988281 -3.703125 0.765625 -4.566406 0.765625 -5.546875 C 0.765625 -5.859375 0.816406 -6.066406 0.921875 -6.171875 C 1.035156 -6.273438 1.253906 -6.328125 1.578125 -6.328125 L 4.3125 -6.328125 C 4.625 -6.328125 4.863281 -6.285156 5.03125 -6.203125 C 5.207031 -6.117188 5.300781 -5.898438 5.3125 -5.546875 C 5.332031 -5.359375 5.378906 -5.171875 5.453125 -4.984375 C 5.535156 -4.796875 5.671875 -4.597656 5.859375 -4.390625 C 6.140625 -4.054688 6.535156 -3.816406 7.046875 -3.671875 C 7.566406 -3.535156 8.085938 -3.46875 8.609375 -3.46875 C 9.378906 -3.46875 10.03125 -3.585938 10.5625 -3.828125 C 11.101562 -4.066406 11.375 -4.582031 11.375 -5.375 C 11.375 -5.894531 11.128906 -6.273438 10.640625 -6.515625 C 10.148438 -6.765625 9.535156 -6.96875 8.796875 -7.125 C 8.054688 -7.289062 7.28125 -7.492188 6.46875 -7.734375 C 5.53125 -8.035156 4.644531 -8.390625 3.8125 -8.796875 C 2.976562 -9.210938 2.300781 -9.773438 1.78125 -10.484375 C 1.269531 -11.203125 1.015625 -12.15625 1.015625 -13.34375 C 1.015625 -14.5625 1.335938 -15.578125 1.984375 -16.390625 C 2.628906 -17.203125 3.476562 -17.816406 4.53125 -18.234375 C 5.582031 -18.660156 6.6875 -18.894531 7.84375 -18.9375 C 8.75 -18.9375 9.640625 -18.832031 10.515625 -18.625 C 11.398438 -18.414062 12.203125 -18.09375 12.921875 -17.65625 C 13.648438 -17.21875 14.234375 -16.664062 14.671875 -16 C 15.117188 -15.332031 15.34375 -14.53125 15.34375 -13.59375 C 15.34375 -13.25 15.285156 -13.03125 15.171875 -12.9375 C 15.054688 -12.84375 14.835938 -12.796875 14.515625 -12.796875 L 11.765625 -12.796875 C 11.503906 -12.796875 11.328125 -12.875 11.234375 -13.03125 C 11.148438 -13.195312 11.070312 -13.375 11 -13.5625 C 10.945312 -13.707031 10.878906 -13.84375 10.796875 -13.96875 C 10.710938 -14.09375 10.582031 -14.238281 10.40625 -14.40625 C 10.144531 -14.664062 9.789062 -14.859375 9.34375 -14.984375 C 8.894531 -15.109375 8.453125 -15.171875 8.015625 -15.171875 C 7.710938 -15.171875 7.363281 -15.125 6.96875 -15.03125 C 6.582031 -14.9375 6.25 -14.769531 5.96875 -14.53125 C 5.6875 -14.300781 5.546875 -13.96875 5.546875 -13.53125 C 5.546875 -13.101562 5.757812 -12.738281 6.1875 -12.4375 C 6.625 -12.132812 7.144531 -11.875 7.75 -11.65625 C 8.363281 -11.445312 8.957031 -11.269531 9.53125 -11.125 C 10.101562 -10.988281 10.53125 -10.863281 10.8125 -10.75 Z M 10.8125 -10.75 "/></g></g></g><g fill="#000000" fill-opacity="1"><g transform="translate(38.283594, 28.339204)"><g><path d="M 16.1875 -18.515625 C 16.445312 -18.515625 16.601562 -18.421875 16.65625 -18.234375 C 16.71875 -18.046875 16.707031 -17.878906 16.625 -17.734375 L 10.828125 -6.953125 L 10.828125 -0.8125 C 10.828125 -0.5 10.753906 -0.285156 10.609375 -0.171875 C 10.472656 -0.0546875 10.273438 0 10.015625 0 L 7.203125 0 C 6.941406 0 6.738281 -0.0546875 6.59375 -0.171875 C 6.457031 -0.285156 6.390625 -0.5 6.390625 -0.8125 L 6.390625 -6.953125 L 0.359375 -17.734375 C 0.285156 -17.878906 0.273438 -18.046875 0.328125 -18.234375 C 0.390625 -18.421875 0.550781 -18.515625 0.8125 -18.515625 L 4.046875 -18.515625 C 4.367188 -18.515625 4.625 -18.46875 4.8125 -18.375 C 5 -18.28125 5.1875 -18.046875 5.375 -17.671875 L 8.671875 -11.625 L 11.84375 -17.671875 C 12.03125 -18.046875 12.210938 -18.28125 12.390625 -18.375 C 12.566406 -18.46875 12.816406 -18.515625 13.140625 -18.515625 Z M 16.1875 -18.515625 "/></g></g></g><g fill="#000000" fill-opacity="1"><g transform="translate(55.281478, 28.339204)"><g><path d="M 16.296875 -18.515625 C 16.554688 -18.515625 16.753906 -18.457031 16.890625 -18.34375 C 17.035156 -18.226562 17.109375 -18.015625 17.109375 -17.703125 L 17.109375 -0.8125 C 17.109375 -0.570312 17.050781 -0.375 16.9375 -0.21875 C 16.820312 -0.0703125 16.609375 0 16.296875 0 L 13.734375 0 C 13.378906 0 13.125 -0.0859375 12.96875 -0.265625 C 12.820312 -0.441406 12.65625 -0.671875 12.46875 -0.953125 L 6.5 -10.609375 L 6.5 -0.8125 C 6.5 -0.5 6.425781 -0.285156 6.28125 -0.171875 C 6.144531 -0.0546875 5.945312 0 5.6875 0 L 2.90625 0 C 2.65625 0 2.453125 -0.0546875 2.296875 -0.171875 C 2.148438 -0.285156 2.078125 -0.5 2.078125 -0.8125 L 2.078125 -17.703125 C 2.078125 -17.960938 2.132812 -18.160156 2.25 -18.296875 C 2.363281 -18.441406 2.582031 -18.515625 2.90625 -18.515625 L 5.546875 -18.515625 C 5.898438 -18.515625 6.148438 -18.425781 6.296875 -18.25 C 6.453125 -18.070312 6.625 -17.84375 6.8125 -17.5625 L 12.78125 -7.9375 L 12.78125 -17.703125 C 12.78125 -18.015625 12.851562 -18.226562 13 -18.34375 C 13.144531 -18.457031 13.34375 -18.515625 13.59375 -18.515625 Z M 16.296875 -18.515625 "/></g></g></g><g fill="#000000" fill-opacity="1"><g transform="translate(74.474451, 28.339204)"><g><path d="M 15.5 -3.9375 C 15.820312 -3.9375 16.039062 -3.863281 16.15625 -3.71875 C 16.269531 -3.582031 16.328125 -3.382812 16.328125 -3.125 L 16.328125 -0.8125 C 16.328125 -0.570312 16.269531 -0.375 16.15625 -0.21875 C 16.039062 -0.0703125 15.820312 0 15.5 0 L 2.90625 0 C 2.582031 0 2.363281 -0.0703125 2.25 -0.21875 C 2.132812 -0.375 2.078125 -0.570312 2.078125 -0.8125 L 2.078125 -17.703125 C 2.078125 -17.960938 2.132812 -18.160156 2.25 -18.296875 C 2.363281 -18.441406 2.582031 -18.515625 2.90625 -18.515625 L 15.03125 -18.515625 C 15.34375 -18.515625 15.554688 -18.441406 15.671875 -18.296875 C 15.785156 -18.160156 15.84375 -17.960938 15.84375 -17.703125 L 15.84375 -15.359375 C 15.84375 -15.117188 15.785156 -14.921875 15.671875 -14.765625 C 15.554688 -14.617188 15.34375 -14.546875 15.03125 -14.546875 L 6.53125 -14.546875 L 6.53125 -11.484375 L 14.0625 -11.484375 C 14.382812 -11.484375 14.601562 -11.410156 14.71875 -11.265625 C 14.832031 -11.128906 14.890625 -10.929688 14.890625 -10.671875 L 14.890625 -8.46875 C 14.890625 -8.226562 14.832031 -8.03125 14.71875 -7.875 C 14.601562 -7.726562 14.382812 -7.65625 14.0625 -7.65625 L 6.53125 -7.65625 L 6.53125 -3.9375 Z M 15.5 -3.9375 "/></g></g></g><g fill="#000000" fill-opacity="1"><g transform="translate(92.119606, 28.339204)"><g><path d="M 17.25 -0.90625 C 17.382812 -0.71875 17.410156 -0.519531 17.328125 -0.3125 C 17.253906 -0.101562 17.085938 0 16.828125 0 L 13.5 0 C 13.164062 0 12.898438 -0.0625 12.703125 -0.1875 C 12.503906 -0.320312 12.300781 -0.539062 12.09375 -0.84375 L 9.0625 -5.375 C 8.925781 -5.539062 8.835938 -5.722656 8.796875 -5.921875 C 8.765625 -6.117188 8.75 -6.414062 8.75 -6.8125 L 8.75 -9.0625 C 8.75 -9.320312 8.804688 -9.519531 8.921875 -9.65625 C 9.035156 -9.800781 9.25 -9.875 9.5625 -9.875 L 10.125 -9.875 C 10.820312 -9.875 11.441406 -10.085938 11.984375 -10.515625 C 12.523438 -10.953125 12.796875 -11.5 12.796875 -12.15625 C 12.796875 -12.882812 12.546875 -13.460938 12.046875 -13.890625 C 11.554688 -14.328125 10.945312 -14.546875 10.21875 -14.546875 L 6.46875 -14.546875 L 6.46875 -0.8125 C 6.46875 -0.5 6.394531 -0.285156 6.25 -0.171875 C 6.113281 -0.0546875 5.914062 0 5.65625 0 L 2.875 0 C 2.625 0 2.425781 -0.0546875 2.28125 -0.171875 C 2.144531 -0.285156 2.078125 -0.5 2.078125 -0.8125 L 2.078125 -17.671875 C 2.078125 -17.929688 2.128906 -18.128906 2.234375 -18.265625 C 2.335938 -18.410156 2.550781 -18.484375 2.875 -18.484375 L 9.96875 -18.484375 C 11 -18.484375 11.847656 -18.414062 12.515625 -18.28125 C 13.191406 -18.15625 13.769531 -17.957031 14.25 -17.6875 C 14.726562 -17.414062 15.164062 -17.082031 15.5625 -16.6875 C 16.082031 -16.175781 16.484375 -15.535156 16.765625 -14.765625 C 17.046875 -14.003906 17.1875 -13.171875 17.1875 -12.265625 C 17.1875 -11.296875 16.976562 -10.425781 16.5625 -9.65625 C 16.15625 -8.882812 15.648438 -8.242188 15.046875 -7.734375 C 14.453125 -7.234375 13.863281 -6.878906 13.28125 -6.671875 Z M 17.25 -0.90625 "/></g></g></g><g fill="#000000" fill-opacity="1"><g transform="translate(110.862305, 28.339204)"><g><path d="M 15.84375 -10.328125 C 16.164062 -10.328125 16.378906 -10.253906 16.484375 -10.109375 C 16.597656 -9.972656 16.65625 -9.773438 16.65625 -9.515625 L 16.65625 -5.4375 C 16.601562 -4.414062 16.332031 -3.535156 15.84375 -2.796875 C 15.351562 -2.054688 14.734375 -1.453125 13.984375 -0.984375 C 13.234375 -0.515625 12.429688 -0.164062 11.578125 0.0625 C 10.722656 0.300781 9.894531 0.421875 9.09375 0.421875 C 8.257812 0.421875 7.398438 0.304688 6.515625 0.078125 C 5.640625 -0.140625 4.820312 -0.488281 4.0625 -0.96875 C 3.300781 -1.445312 2.6875 -2.078125 2.21875 -2.859375 C 1.75 -3.640625 1.515625 -4.582031 1.515625 -5.6875 L 1.515625 -12.609375 C 1.515625 -13.710938 1.75 -14.664062 2.21875 -15.46875 C 2.6875 -16.28125 3.300781 -16.9375 4.0625 -17.4375 C 4.820312 -17.945312 5.640625 -18.320312 6.515625 -18.5625 C 7.398438 -18.8125 8.257812 -18.9375 9.09375 -18.9375 C 9.96875 -18.9375 10.847656 -18.804688 11.734375 -18.546875 C 12.628906 -18.296875 13.445312 -17.925781 14.1875 -17.4375 C 14.9375 -16.957031 15.535156 -16.351562 15.984375 -15.625 C 16.429688 -14.90625 16.65625 -14.078125 16.65625 -13.140625 C 16.65625 -12.804688 16.597656 -12.59375 16.484375 -12.5 C 16.378906 -12.40625 16.164062 -12.359375 15.84375 -12.359375 L 13.109375 -12.359375 C 12.710938 -12.359375 12.492188 -12.46875 12.453125 -12.6875 C 12.421875 -12.914062 12.367188 -13.125 12.296875 -13.3125 C 12.148438 -13.738281 11.8125 -14.128906 11.28125 -14.484375 C 10.757812 -14.847656 10.03125 -15.03125 9.09375 -15.03125 C 8.164062 -15.03125 7.414062 -14.75 6.84375 -14.1875 C 6.28125 -13.625 6 -12.890625 6 -11.984375 L 6 -6.328125 C 6 -5.429688 6.28125 -4.734375 6.84375 -4.234375 C 7.414062 -3.734375 8.164062 -3.484375 9.09375 -3.484375 C 10.007812 -3.484375 10.757812 -3.710938 11.34375 -4.171875 C 11.925781 -4.640625 12.21875 -5.414062 12.21875 -6.5 L 9.6875 -6.5 C 9.363281 -6.5 9.144531 -6.570312 9.03125 -6.71875 C 8.914062 -6.875 8.859375 -7.070312 8.859375 -7.3125 L 8.859375 -9.515625 C 8.859375 -9.773438 8.914062 -9.972656 9.03125 -10.109375 C 9.144531 -10.253906 9.363281 -10.328125 9.6875 -10.328125 Z M 15.84375 -10.328125 "/></g></g></g><g fill="#000000" fill-opacity="1"><g transform="translate(129.042163, 28.339204)"><g><path d="M 16.1875 -18.515625 C 16.445312 -18.515625 16.601562 -18.421875 16.65625 -18.234375 C 16.71875 -18.046875 16.707031 -17.878906 16.625 -17.734375 L 10.828125 -6.953125 L 10.828125 -0.8125 C 10.828125 -0.5 10.753906 -0.285156 10.609375 -0.171875 C 10.472656 -0.0546875 10.273438 0 10.015625 0 L 7.203125 0 C 6.941406 0 6.738281 -0.0546875 6.59375 -0.171875 C 6.457031 -0.285156 6.390625 -0.5 6.390625 -0.8125 L 6.390625 -6.953125 L 0.359375 -17.734375 C 0.285156 -17.878906 0.273438 -18.046875 0.328125 -18.234375 C 0.390625 -18.421875 0.550781 -18.515625 0.8125 -18.515625 L 4.046875 -18.515625 C 4.367188 -18.515625 4.625 -18.46875 4.8125 -18.375 C 5 -18.28125 5.1875 -18.046875 5.375 -17.671875 L 8.671875 -11.625 L 11.84375 -17.671875 C 12.03125 -18.046875 12.210938 -18.28125 12.390625 -18.375 C 12.566406 -18.46875 12.816406 -18.515625 13.140625 -18.515625 Z M 16.1875 -18.515625 "/></g></g></g><g clip-path="url(#35dfcf7386)"><g fill="#000000" fill-opacity="1"><g transform="translate(146.040041, 28.339204)"><g><path d="M 15.84375 -0.875 C 15.957031 -0.707031 15.976562 -0.519531 15.90625 -0.3125 C 15.84375 -0.101562 15.707031 0 15.5 0 L 12.296875 0 C 11.992188 0 11.765625 -0.0390625 11.609375 -0.125 C 11.453125 -0.207031 11.269531 -0.425781 11.0625 -0.78125 L 8.265625 -5.796875 L 5.453125 -0.78125 C 5.265625 -0.425781 5.09375 -0.207031 4.9375 -0.125 C 4.78125 -0.0390625 4.539062 0 4.21875 0 L 1.015625 0 C 0.804688 0 0.664062 -0.101562 0.59375 -0.3125 C 0.53125 -0.519531 0.554688 -0.707031 0.671875 -0.875 L 5.6875 -9.484375 L 0.59375 -17.734375 C 0.519531 -17.878906 0.507812 -18.046875 0.5625 -18.234375 C 0.613281 -18.421875 0.765625 -18.515625 1.015625 -18.515625 L 4.328125 -18.515625 C 4.597656 -18.515625 4.804688 -18.453125 4.953125 -18.328125 C 5.097656 -18.210938 5.265625 -18.003906 5.453125 -17.703125 L 8.265625 -13.171875 L 11.0625 -17.703125 C 11.269531 -18.003906 11.441406 -18.210938 11.578125 -18.328125 C 11.722656 -18.453125 11.9375 -18.515625 12.21875 -18.515625 L 15.5 -18.515625 C 15.75 -18.515625 15.90625 -18.421875 15.96875 -18.234375 C 16.03125 -18.046875 16.015625 -17.878906 15.921875 -17.734375 L 10.859375 -9.484375 Z M 15.84375 -0.875 "/></g></g></g></g><g clip-path="url(#4165aa51cb)"><path fill="#000000" d="M 16.480469 22.707031 C 16.480469 22.972656 16.382812 23.21875 16.214844 23.40625 L 7.167969 23.40625 C 6.566406 22.757812 7.0625 21.632812 7.953125 21.652344 C 7.953125 21.652344 15.425781 21.652344 15.425781 21.652344 C 16.011719 21.652344 16.480469 22.125 16.480469 22.707031 Z M 7.167969 24.117188 C 6.566406 24.761719 7.0625 25.890625 7.953125 25.871094 L 15.425781 25.871094 C 16.316406 25.890625 16.816406 24.757812 16.210938 24.117188 Z M 10.140625 27.703125 L 13.246094 27.703125 C 13.914062 27.703125 14.460938 27.214844 14.566406 26.582031 L 8.820312 26.582031 C 8.925781 27.214844 9.472656 27.703125 10.140625 27.703125 Z M 16.859375 17.210938 C 15.765625 18.164062 15.09375 19.507812 14.957031 20.941406 L 12.6875 20.941406 L 12.6875 6.59375 C 12.6875 6.292969 12.945312 6.050781 13.246094 6.078125 C 18.847656 6.574219 21.03125 13.609375 16.859375 17.210938 Z M 17.855469 12.414062 C 17.867188 10.261719 16.457031 8.246094 14.417969 7.542969 C 14.210938 7.464844 13.96875 7.578125 13.898438 7.792969 C 13.820312 8.007812 13.925781 8.238281 14.144531 8.316406 C 15.851562 8.90625 17.042969 10.601562 17.03125 12.414062 C 17.039062 12.953125 17.847656 12.953125 17.855469 12.414062 Z M 7.4375 18.5 C 7.703125 18.226562 8.308594 17.867188 8.53125 18.375 C 8.613281 18.582031 8.507812 18.824219 8.292969 18.90625 C 7.371094 19.328125 7.847656 20.570312 8.421875 20.941406 L 10.257812 20.941406 C 10.652344 20.652344 10.90625 20.191406 10.90625 19.671875 L 10.90625 8.054688 C 10.898438 6.378906 8.605469 5.886719 7.917969 7.410156 C 8.472656 7.515625 10.105469 8.910156 8.933594 9.171875 C 8.542969 9.15625 8.457031 8.640625 8.148438 8.464844 C 6.609375 7.246094 4.417969 8.917969 5.082031 10.695312 C 5.777344 10.566406 6.695312 10.910156 7.160156 11.5 C 7.390625 11.75 7.179688 12.183594 6.847656 12.175781 C 6.730469 12.175781 6.617188 12.125 6.535156 12.027344 C 6.429688 11.898438 6.1875 11.664062 5.808594 11.554688 C 5.542969 11.46875 5.175781 11.488281 4.960938 11.558594 C 2.835938 12.179688 2.660156 15.203125 4.6875 16.066406 C 4.964844 15.621094 6.582031 14.386719 6.875 15.253906 C 6.929688 15.472656 6.792969 15.699219 6.578125 15.75 C 4.242188 16.328125 4.566406 19.609375 6.972656 19.675781 C 6.976562 19.277344 7.105469 18.835938 7.4375 18.5 Z M 18.203125 7.367188 C 18.308594 7.367188 18.410156 7.328125 18.492188 7.25 L 20.390625 5.351562 C 20.765625 4.960938 20.199219 4.390625 19.8125 4.769531 C 19.8125 4.769531 17.914062 6.671875 17.914062 6.671875 C 17.648438 6.914062 17.847656 7.378906 18.203125 7.367188 Z M 23.167969 12.0625 L 20.484375 12.0625 C 19.941406 12.070312 19.945312 12.875 20.484375 12.882812 L 23.167969 12.882812 C 23.710938 12.875 23.703125 12.070312 23.167969 12.0625 Z M 18.488281 17.703125 C 18.097656 17.328125 17.53125 17.898438 17.910156 18.28125 L 19.808594 20.183594 C 20.191406 20.5625 20.765625 19.984375 20.386719 19.601562 C 20.386719 19.597656 18.488281 17.703125 18.488281 17.703125 Z M 12.6875 5.082031 C 12.914062 5.082031 13.097656 4.898438 13.097656 4.675781 L 13.097656 1.984375 C 13.097656 1.757812 12.914062 1.574219 12.6875 1.574219 C 12.464844 1.574219 12.28125 1.757812 12.28125 1.984375 L 12.28125 4.667969 C 12.28125 4.898438 12.464844 5.082031 12.6875 5.082031 Z M 12.6875 5.082031 " fill-opacity="1" fill-rule="nonzero"/></g><g fill="#000000" fill-opacity="1"><g transform="translate(69.570388, 8.850225)"><g><path d="M 4.96875 -4.9375 C 5.195312 -4.875 5.445312 -4.789062 5.71875 -4.6875 C 5.988281 -4.59375 6.238281 -4.457031 6.46875 -4.28125 C 6.695312 -4.113281 6.882812 -3.890625 7.03125 -3.609375 C 7.1875 -3.328125 7.265625 -2.960938 7.265625 -2.515625 C 7.265625 -1.910156 7.113281 -1.40625 6.8125 -1 C 6.519531 -0.601562 6.113281 -0.304688 5.59375 -0.109375 C 5.082031 0.0859375 4.492188 0.1875 3.828125 0.1875 C 3.421875 0.1875 3.015625 0.128906 2.609375 0.015625 C 2.203125 -0.0976562 1.828125 -0.269531 1.484375 -0.5 C 1.140625 -0.726562 0.863281 -1.015625 0.65625 -1.359375 C 0.445312 -1.703125 0.34375 -2.097656 0.34375 -2.546875 C 0.34375 -2.691406 0.367188 -2.785156 0.421875 -2.828125 C 0.472656 -2.878906 0.570312 -2.90625 0.71875 -2.90625 L 1.984375 -2.90625 C 2.128906 -2.90625 2.238281 -2.882812 2.3125 -2.84375 C 2.394531 -2.8125 2.4375 -2.710938 2.4375 -2.546875 C 2.445312 -2.460938 2.46875 -2.375 2.5 -2.28125 C 2.539062 -2.195312 2.601562 -2.109375 2.6875 -2.015625 C 2.820312 -1.859375 3.003906 -1.75 3.234375 -1.6875 C 3.472656 -1.625 3.710938 -1.59375 3.953125 -1.59375 C 4.304688 -1.59375 4.609375 -1.644531 4.859375 -1.75 C 5.109375 -1.863281 5.234375 -2.101562 5.234375 -2.46875 C 5.234375 -2.707031 5.117188 -2.882812 4.890625 -3 C 4.660156 -3.113281 4.375 -3.207031 4.03125 -3.28125 C 3.695312 -3.351562 3.34375 -3.445312 2.96875 -3.5625 C 2.539062 -3.695312 2.132812 -3.859375 1.75 -4.046875 C 1.363281 -4.234375 1.050781 -4.488281 0.8125 -4.8125 C 0.582031 -5.144531 0.46875 -5.582031 0.46875 -6.125 C 0.46875 -6.6875 0.613281 -7.15625 0.90625 -7.53125 C 1.207031 -7.90625 1.597656 -8.191406 2.078125 -8.390625 C 2.566406 -8.585938 3.078125 -8.691406 3.609375 -8.703125 C 4.023438 -8.703125 4.4375 -8.65625 4.84375 -8.5625 C 5.25 -8.46875 5.613281 -8.316406 5.9375 -8.109375 C 6.269531 -7.910156 6.535156 -7.65625 6.734375 -7.34375 C 6.941406 -7.039062 7.046875 -6.675781 7.046875 -6.25 C 7.046875 -6.09375 7.019531 -5.992188 6.96875 -5.953125 C 6.914062 -5.910156 6.816406 -5.890625 6.671875 -5.890625 L 5.40625 -5.890625 C 5.289062 -5.890625 5.210938 -5.925781 5.171875 -6 C 5.128906 -6.070312 5.09375 -6.148438 5.0625 -6.234375 C 5.03125 -6.304688 4.992188 -6.367188 4.953125 -6.421875 C 4.921875 -6.472656 4.863281 -6.539062 4.78125 -6.625 C 4.664062 -6.75 4.503906 -6.835938 4.296875 -6.890625 C 4.085938 -6.941406 3.882812 -6.96875 3.6875 -6.96875 C 3.550781 -6.96875 3.390625 -6.945312 3.203125 -6.90625 C 3.023438 -6.863281 2.867188 -6.785156 2.734375 -6.671875 C 2.609375 -6.566406 2.546875 -6.414062 2.546875 -6.21875 C 2.546875 -6.019531 2.644531 -5.851562 2.84375 -5.71875 C 3.039062 -5.582031 3.28125 -5.460938 3.5625 -5.359375 C 3.84375 -5.265625 4.113281 -5.179688 4.375 -5.109375 C 4.644531 -5.046875 4.84375 -4.988281 4.96875 -4.9375 Z M 4.96875 -4.9375 "/></g></g></g><g fill="#000000" fill-opacity="1"><g transform="translate(77.394172, 8.850225)"><g><path d="M 8.046875 -8.515625 C 8.171875 -8.515625 8.238281 -8.46875 8.25 -8.375 C 8.257812 -8.28125 8.234375 -8.207031 8.171875 -8.15625 L 5.265625 -5 L 8.046875 -0.40625 C 8.097656 -0.320312 8.109375 -0.234375 8.078125 -0.140625 C 8.046875 -0.046875 7.972656 0 7.859375 0 L 6.28125 0 C 6.125 0 5.992188 -0.03125 5.890625 -0.09375 C 5.796875 -0.164062 5.707031 -0.269531 5.625 -0.40625 C 5.625 -0.40625 5.5625 -0.507812 5.4375 -0.71875 C 5.3125 -0.9375 5.148438 -1.207031 4.953125 -1.53125 C 4.765625 -1.851562 4.5625 -2.191406 4.34375 -2.546875 C 4.132812 -2.898438 3.945312 -3.222656 3.78125 -3.515625 L 2.96875 -2.671875 L 2.96875 -0.375 C 2.96875 -0.226562 2.9375 -0.128906 2.875 -0.078125 C 2.8125 -0.0234375 2.722656 0 2.609375 0 L 1.328125 0 C 1.210938 0 1.117188 -0.0234375 1.046875 -0.078125 C 0.984375 -0.128906 0.953125 -0.226562 0.953125 -0.375 L 0.953125 -8.140625 C 0.953125 -8.285156 0.984375 -8.382812 1.046875 -8.4375 C 1.117188 -8.488281 1.210938 -8.515625 1.328125 -8.515625 L 2.609375 -8.515625 C 2.722656 -8.515625 2.8125 -8.488281 2.875 -8.4375 C 2.9375 -8.382812 2.96875 -8.285156 2.96875 -8.140625 L 2.96875 -5.25 L 5.65625 -8.203125 C 5.78125 -8.347656 5.878906 -8.4375 5.953125 -8.46875 C 6.035156 -8.5 6.148438 -8.515625 6.296875 -8.515625 Z M 8.046875 -8.515625 "/></g></g></g><g fill="#000000" fill-opacity="1"><g transform="translate(85.851618, 8.850225)"><g><path d="M 4.65625 -1.765625 C 4.800781 -1.765625 4.898438 -1.734375 4.953125 -1.671875 C 5.003906 -1.609375 5.03125 -1.515625 5.03125 -1.390625 L 5.03125 -0.375 C 5.03125 -0.257812 5.003906 -0.164062 4.953125 -0.09375 C 4.898438 -0.03125 4.800781 0 4.65625 0 L 1 0 C 0.851562 0 0.753906 -0.03125 0.703125 -0.09375 C 0.648438 -0.164062 0.625 -0.257812 0.625 -0.375 L 0.625 -1.390625 C 0.625 -1.515625 0.648438 -1.609375 0.703125 -1.671875 C 0.753906 -1.734375 0.851562 -1.765625 1 -1.765625 L 1.8125 -1.765625 L 1.8125 -6.71875 L 1.015625 -6.71875 C 0.867188 -6.71875 0.769531 -6.75 0.71875 -6.8125 C 0.664062 -6.882812 0.640625 -6.976562 0.640625 -7.09375 L 0.640625 -8.140625 C 0.640625 -8.253906 0.664062 -8.34375 0.71875 -8.40625 C 0.769531 -8.476562 0.867188 -8.515625 1.015625 -8.515625 L 4.625 -8.515625 C 4.769531 -8.515625 4.867188 -8.476562 4.921875 -8.40625 C 4.972656 -8.34375 5 -8.253906 5 -8.140625 L 5 -7.09375 C 5 -6.976562 4.972656 -6.882812 4.921875 -6.8125 C 4.867188 -6.75 4.769531 -6.71875 4.625 -6.71875 L 3.84375 -6.71875 L 3.84375 -1.765625 Z M 4.65625 -1.765625 "/></g></g></g><g fill="#000000" fill-opacity="1"><g transform="translate(91.59337, 8.850225)"><g><path d="M 6.71875 -1.8125 C 6.863281 -1.8125 6.960938 -1.78125 7.015625 -1.71875 C 7.066406 -1.65625 7.09375 -1.5625 7.09375 -1.4375 L 7.09375 -0.375 C 7.09375 -0.257812 7.066406 -0.164062 7.015625 -0.09375 C 6.960938 -0.03125 6.863281 0 6.71875 0 L 1.328125 0 C 1.179688 0 1.082031 -0.03125 1.03125 -0.09375 C 0.976562 -0.164062 0.953125 -0.257812 0.953125 -0.375 L 0.953125 -8.140625 C 0.953125 -8.285156 0.988281 -8.382812 1.0625 -8.4375 C 1.132812 -8.488281 1.222656 -8.515625 1.328125 -8.515625 L 2.609375 -8.515625 C 2.734375 -8.515625 2.828125 -8.488281 2.890625 -8.4375 C 2.953125 -8.382812 2.984375 -8.285156 2.984375 -8.140625 L 2.984375 -1.8125 Z M 6.71875 -1.8125 "/></g></g></g><g fill="#000000" fill-opacity="1"><g transform="translate(99.119722, 8.850225)"><g><path d="M 6.71875 -1.8125 C 6.863281 -1.8125 6.960938 -1.78125 7.015625 -1.71875 C 7.066406 -1.65625 7.09375 -1.5625 7.09375 -1.4375 L 7.09375 -0.375 C 7.09375 -0.257812 7.066406 -0.164062 7.015625 -0.09375 C 6.960938 -0.03125 6.863281 0 6.71875 0 L 1.328125 0 C 1.179688 0 1.082031 -0.03125 1.03125 -0.09375 C 0.976562 -0.164062 0.953125 -0.257812 0.953125 -0.375 L 0.953125 -8.140625 C 0.953125 -8.285156 0.988281 -8.382812 1.0625 -8.4375 C 1.132812 -8.488281 1.222656 -8.515625 1.328125 -8.515625 L 2.609375 -8.515625 C 2.734375 -8.515625 2.828125 -8.488281 2.890625 -8.4375 C 2.953125 -8.382812 2.984375 -8.285156 2.984375 -8.140625 L 2.984375 -1.8125 Z M 6.71875 -1.8125 "/></g></g></g><g fill="#000000" fill-opacity="1"><g transform="translate(106.646074, 8.850225)"><g><path d="M 7.03125 -4.40625 C 7.050781 -4.40625 7.125 -4.363281 7.25 -4.28125 C 7.375 -4.207031 7.507812 -4.097656 7.65625 -3.953125 C 7.800781 -3.804688 7.929688 -3.613281 8.046875 -3.375 C 8.160156 -3.132812 8.21875 -2.835938 8.21875 -2.484375 C 8.21875 -1.941406 8.082031 -1.484375 7.8125 -1.109375 C 7.550781 -0.742188 7.191406 -0.46875 6.734375 -0.28125 C 6.273438 -0.09375 5.742188 0 5.140625 0 L 1.328125 0 C 1.179688 0 1.082031 -0.03125 1.03125 -0.09375 C 0.976562 -0.164062 0.953125 -0.257812 0.953125 -0.375 L 0.953125 -8.15625 C 0.953125 -8.269531 0.976562 -8.359375 1.03125 -8.421875 C 1.082031 -8.492188 1.179688 -8.53125 1.328125 -8.53125 L 4.953125 -8.53125 C 5.660156 -8.53125 6.234375 -8.414062 6.671875 -8.1875 C 7.109375 -7.96875 7.429688 -7.679688 7.640625 -7.328125 C 7.859375 -6.972656 7.96875 -6.59375 7.96875 -6.1875 C 7.96875 -5.75 7.894531 -5.40625 7.75 -5.15625 C 7.613281 -4.90625 7.46875 -4.722656 7.3125 -4.609375 C 7.164062 -4.492188 7.070312 -4.425781 7.03125 -4.40625 Z M 5.15625 -1.84375 C 5.476562 -1.84375 5.722656 -1.90625 5.890625 -2.03125 C 6.066406 -2.164062 6.15625 -2.378906 6.15625 -2.671875 C 6.15625 -2.972656 6.050781 -3.179688 5.84375 -3.296875 C 5.644531 -3.410156 5.390625 -3.46875 5.078125 -3.46875 L 4.78125 -3.46875 C 4.632812 -3.46875 4.535156 -3.5 4.484375 -3.5625 C 4.429688 -3.632812 4.40625 -3.726562 4.40625 -3.84375 L 4.40625 -4.828125 C 4.40625 -4.941406 4.429688 -5.03125 4.484375 -5.09375 C 4.535156 -5.164062 4.632812 -5.203125 4.78125 -5.203125 L 4.953125 -5.203125 C 5.335938 -5.203125 5.613281 -5.269531 5.78125 -5.40625 C 5.945312 -5.539062 6.03125 -5.734375 6.03125 -5.984375 C 6.03125 -6.273438 5.929688 -6.46875 5.734375 -6.5625 C 5.546875 -6.65625 5.285156 -6.703125 4.953125 -6.703125 L 2.984375 -6.703125 L 2.984375 -1.84375 Z M 5.15625 -1.84375 "/></g></g></g><g fill="#000000" fill-opacity="1"><g transform="translate(115.530272, 8.850225)"><g><path d="M 7.328125 -8.515625 C 7.441406 -8.515625 7.53125 -8.488281 7.59375 -8.4375 C 7.664062 -8.382812 7.703125 -8.285156 7.703125 -8.140625 L 7.703125 -2.59375 C 7.703125 -2.09375 7.597656 -1.664062 7.390625 -1.3125 C 7.179688 -0.957031 6.90625 -0.664062 6.5625 -0.4375 C 6.226562 -0.21875 5.859375 -0.0625 5.453125 0.03125 C 5.054688 0.132812 4.660156 0.1875 4.265625 0.1875 C 3.878906 0.1875 3.488281 0.132812 3.09375 0.03125 C 2.695312 -0.0625 2.328125 -0.21875 1.984375 -0.4375 C 1.640625 -0.664062 1.363281 -0.957031 1.15625 -1.3125 C 0.957031 -1.664062 0.859375 -2.09375 0.859375 -2.59375 L 0.859375 -8.140625 C 0.859375 -8.285156 0.890625 -8.382812 0.953125 -8.4375 C 1.023438 -8.488281 1.117188 -8.515625 1.234375 -8.515625 L 2.515625 -8.515625 C 2.628906 -8.515625 2.71875 -8.488281 2.78125 -8.4375 C 2.851562 -8.382812 2.890625 -8.285156 2.890625 -8.140625 L 2.890625 -2.890625 C 2.890625 -2.484375 3.015625 -2.164062 3.265625 -1.9375 C 3.515625 -1.71875 3.847656 -1.609375 4.265625 -1.609375 C 4.703125 -1.609375 5.046875 -1.71875 5.296875 -1.9375 C 5.546875 -2.164062 5.671875 -2.484375 5.671875 -2.890625 L 5.671875 -8.140625 C 5.671875 -8.285156 5.703125 -8.382812 5.765625 -8.4375 C 5.835938 -8.488281 5.929688 -8.515625 6.046875 -8.515625 Z M 7.328125 -8.515625 "/></g></g></g><g fill="#000000" fill-opacity="1"><g transform="translate(124.078243, 8.850225)"><g><path d="M 4.65625 -1.765625 C 4.800781 -1.765625 4.898438 -1.734375 4.953125 -1.671875 C 5.003906 -1.609375 5.03125 -1.515625 5.03125 -1.390625 L 5.03125 -0.375 C 5.03125 -0.257812 5.003906 -0.164062 4.953125 -0.09375 C 4.898438 -0.03125 4.800781 0 4.65625 0 L 1 0 C 0.851562 0 0.753906 -0.03125 0.703125 -0.09375 C 0.648438 -0.164062 0.625 -0.257812 0.625 -0.375 L 0.625 -1.390625 C 0.625 -1.515625 0.648438 -1.609375 0.703125 -1.671875 C 0.753906 -1.734375 0.851562 -1.765625 1 -1.765625 L 1.8125 -1.765625 L 1.8125 -6.71875 L 1.015625 -6.71875 C 0.867188 -6.71875 0.769531 -6.75 0.71875 -6.8125 C 0.664062 -6.882812 0.640625 -6.976562 0.640625 -7.09375 L 0.640625 -8.140625 C 0.640625 -8.253906 0.664062 -8.34375 0.71875 -8.40625 C 0.769531 -8.476562 0.867188 -8.515625 1.015625 -8.515625 L 4.625 -8.515625 C 4.769531 -8.515625 4.867188 -8.476562 4.921875 -8.40625 C 4.972656 -8.34375 5 -8.253906 5 -8.140625 L 5 -7.09375 C 5 -6.976562 4.972656 -6.882812 4.921875 -6.8125 C 4.867188 -6.75 4.769531 -6.71875 4.625 -6.71875 L 3.84375 -6.71875 L 3.84375 -1.765625 Z M 4.65625 -1.765625 "/></g></g></g><g fill="#000000" fill-opacity="1"><g transform="translate(129.819994, 8.850225)"><g><path d="M 6.71875 -1.8125 C 6.863281 -1.8125 6.960938 -1.78125 7.015625 -1.71875 C 7.066406 -1.65625 7.09375 -1.5625 7.09375 -1.4375 L 7.09375 -0.375 C 7.09375 -0.257812 7.066406 -0.164062 7.015625 -0.09375 C 6.960938 -0.03125 6.863281 0 6.71875 0 L 1.328125 0 C 1.179688 0 1.082031 -0.03125 1.03125 -0.09375 C 0.976562 -0.164062 0.953125 -0.257812 0.953125 -0.375 L 0.953125 -8.140625 C 0.953125 -8.285156 0.988281 -8.382812 1.0625 -8.4375 C 1.132812 -8.488281 1.222656 -8.515625 1.328125 -8.515625 L 2.609375 -8.515625 C 2.734375 -8.515625 2.828125 -8.488281 2.890625 -8.4375 C 2.953125 -8.382812 2.984375 -8.285156 2.984375 -8.140625 L 2.984375 -1.8125 Z M 6.71875 -1.8125 "/></g></g></g><g fill="#000000" fill-opacity="1"><g transform="translate(137.346344, 8.850225)"><g><path d="M 4.234375 -8.515625 C 4.617188 -8.515625 5.015625 -8.453125 5.421875 -8.328125 C 5.828125 -8.210938 6.203125 -8.039062 6.546875 -7.8125 C 6.890625 -7.582031 7.164062 -7.28125 7.375 -6.90625 C 7.59375 -6.539062 7.703125 -6.109375 7.703125 -5.609375 L 7.703125 -2.90625 C 7.703125 -2.394531 7.59375 -1.957031 7.375 -1.59375 C 7.164062 -1.226562 6.890625 -0.925781 6.546875 -0.6875 C 6.203125 -0.457031 5.828125 -0.285156 5.421875 -0.171875 C 5.015625 -0.0546875 4.617188 0 4.234375 0 L 1.328125 0 C 1.179688 0 1.082031 -0.03125 1.03125 -0.09375 C 0.976562 -0.164062 0.953125 -0.257812 0.953125 -0.375 L 0.953125 -8.140625 C 0.953125 -8.253906 0.976562 -8.34375 1.03125 -8.40625 C 1.082031 -8.476562 1.179688 -8.515625 1.328125 -8.515625 Z M 5.671875 -5.421875 C 5.671875 -5.828125 5.535156 -6.144531 5.265625 -6.375 C 5.003906 -6.601562 4.660156 -6.71875 4.234375 -6.71875 L 2.984375 -6.71875 L 2.984375 -1.796875 L 4.234375 -1.796875 C 4.660156 -1.796875 5.003906 -1.90625 5.265625 -2.125 C 5.535156 -2.351562 5.671875 -2.675781 5.671875 -3.09375 Z M 5.671875 -5.421875 "/></g></g></g><g fill="#000000" fill-opacity="1"><g transform="translate(145.752062, 8.850225)"><g><path d="M 7.125 -1.8125 C 7.269531 -1.8125 7.367188 -1.78125 7.421875 -1.71875 C 7.472656 -1.65625 7.5 -1.5625 7.5 -1.4375 L 7.5 -0.375 C 7.5 -0.257812 7.472656 -0.164062 7.421875 -0.09375 C 7.367188 -0.03125 7.269531 0 7.125 0 L 1.328125 0 C 1.179688 0 1.082031 -0.03125 1.03125 -0.09375 C 0.976562 -0.164062 0.953125 -0.257812 0.953125 -0.375 L 0.953125 -8.140625 C 0.953125 -8.253906 0.976562 -8.34375 1.03125 -8.40625 C 1.082031 -8.476562 1.179688 -8.515625 1.328125 -8.515625 L 6.90625 -8.515625 C 7.050781 -8.515625 7.148438 -8.476562 7.203125 -8.40625 C 7.253906 -8.34375 7.28125 -8.253906 7.28125 -8.140625 L 7.28125 -7.0625 C 7.28125 -6.945312 7.253906 -6.851562 7.203125 -6.78125 C 7.148438 -6.71875 7.050781 -6.6875 6.90625 -6.6875 L 3 -6.6875 L 3 -5.28125 L 6.46875 -5.28125 C 6.613281 -5.28125 6.710938 -5.242188 6.765625 -5.171875 C 6.816406 -5.109375 6.84375 -5.019531 6.84375 -4.90625 L 6.84375 -3.890625 C 6.84375 -3.773438 6.816406 -3.679688 6.765625 -3.609375 C 6.710938 -3.546875 6.613281 -3.515625 6.46875 -3.515625 L 3 -3.515625 L 3 -1.8125 Z M 7.125 -1.8125 "/></g></g></g><g fill="#000000" fill-opacity="1"><g transform="translate(153.860346, 8.850225)"><g><path d="M 7.9375 -0.40625 C 7.988281 -0.320312 8 -0.234375 7.96875 -0.140625 C 7.9375 -0.046875 7.859375 0 7.734375 0 L 6.203125 0 C 6.054688 0 5.9375 -0.03125 5.84375 -0.09375 C 5.75 -0.15625 5.65625 -0.253906 5.5625 -0.390625 L 4.171875 -2.46875 C 4.109375 -2.550781 4.066406 -2.632812 4.046875 -2.71875 C 4.035156 -2.8125 4.03125 -2.945312 4.03125 -3.125 L 4.03125 -4.171875 C 4.03125 -4.285156 4.050781 -4.375 4.09375 -4.4375 C 4.144531 -4.507812 4.25 -4.546875 4.40625 -4.546875 L 4.65625 -4.546875 C 4.976562 -4.546875 5.265625 -4.644531 5.515625 -4.84375 C 5.765625 -5.039062 5.890625 -5.289062 5.890625 -5.59375 C 5.890625 -5.925781 5.773438 -6.191406 5.546875 -6.390625 C 5.316406 -6.585938 5.035156 -6.6875 4.703125 -6.6875 L 2.96875 -6.6875 L 2.96875 -0.375 C 2.96875 -0.226562 2.9375 -0.128906 2.875 -0.078125 C 2.8125 -0.0234375 2.71875 0 2.59375 0 L 1.3125 0 C 1.207031 0 1.117188 -0.0234375 1.046875 -0.078125 C 0.984375 -0.128906 0.953125 -0.226562 0.953125 -0.375 L 0.953125 -8.125 C 0.953125 -8.25 0.972656 -8.34375 1.015625 -8.40625 C 1.066406 -8.46875 1.164062 -8.5 1.3125 -8.5 L 4.578125 -8.5 C 5.054688 -8.5 5.445312 -8.46875 5.75 -8.40625 C 6.0625 -8.34375 6.328125 -8.25 6.546875 -8.125 C 6.765625 -8 6.96875 -7.847656 7.15625 -7.671875 C 7.394531 -7.441406 7.578125 -7.148438 7.703125 -6.796875 C 7.835938 -6.441406 7.90625 -6.054688 7.90625 -5.640625 C 7.90625 -5.191406 7.804688 -4.789062 7.609375 -4.4375 C 7.421875 -4.082031 7.1875 -3.785156 6.90625 -3.546875 C 6.632812 -3.316406 6.367188 -3.15625 6.109375 -3.0625 Z M 7.9375 -0.40625 "/></g></g></g></svg>