<svg xmlns="http://www.w3.org/2000/svg" xmlns:xlink="http://www.w3.org/1999/xlink" width="220" zoomAndPan="magnify" viewBox="0 0 165 30.000001" height="40" preserveAspectRatio="xMidYMid meet" version="1.0"><defs><g/><clipPath id="846f7f524e"><path d="M 15 5 L 27 5 L 27 11 L 15 11 Z M 15 5 " clip-rule="nonzero"/></clipPath><clipPath id="6cd081b556"><path d="M 9.21875 0.480469 L 32.417969 -0.664062 L 33.132812 13.832031 L 9.933594 14.976562 Z M 9.21875 0.480469 " clip-rule="nonzero"/></clipPath><clipPath id="7bc4082d4b"><path d="M 9.21875 0.480469 L 32.417969 -0.664062 L 33.132812 13.832031 L 9.933594 14.976562 Z M 9.21875 0.480469 " clip-rule="nonzero"/></clipPath><clipPath id="a13ed0e07b"><path d="M 9 0 L 33 0 L 33 9 L 9 9 Z M 9 0 " clip-rule="nonzero"/></clipPath><clipPath id="f7cf3d44da"><path d="M 9.21875 0.480469 L 32.417969 -0.664062 L 33.132812 13.832031 L 9.933594 14.976562 Z M 9.21875 0.480469 " clip-rule="nonzero"/></clipPath><clipPath id="d13609ab82"><path d="M 9.21875 0.480469 L 32.417969 -0.664062 L 33.132812 13.832031 L 9.933594 14.976562 Z M 9.21875 0.480469 " clip-rule="nonzero"/></clipPath><clipPath id="7f6dc30b14"><path d="M 12 6 L 13 6 L 13 11 L 12 11 Z M 12 6 " clip-rule="nonzero"/></clipPath><clipPath id="16234a65fd"><path d="M 9.21875 0.480469 L 32.417969 -0.664062 L 33.132812 13.832031 L 9.933594 14.976562 Z M 9.21875 0.480469 " clip-rule="nonzero"/></clipPath><clipPath id="faf028eacd"><path d="M 9.21875 0.480469 L 32.417969 -0.664062 L 33.132812 13.832031 L 9.933594 14.976562 Z M 9.21875 0.480469 " clip-rule="nonzero"/></clipPath><clipPath id="5540529d97"><path d="M 11 10 L 14 10 L 14 15 L 11 15 Z M 11 10 " clip-rule="nonzero"/></clipPath><clipPath id="ddebf1c813"><path d="M 9.21875 0.480469 L 32.417969 -0.664062 L 33.132812 13.832031 L 9.933594 14.976562 Z M 9.21875 0.480469 " clip-rule="nonzero"/></clipPath><clipPath id="d07e5c2da6"><path d="M 9.21875 0.480469 L 32.417969 -0.664062 L 33.132812 13.832031 L 9.933594 14.976562 Z M 9.21875 0.480469 " clip-rule="nonzero"/></clipPath><clipPath id="b8d4c3c9a7"><path d="M 12 11 L 13 11 L 13 15 L 12 15 Z M 12 11 " clip-rule="nonzero"/></clipPath><clipPath id="28ce850813"><path d="M 9.21875 0.480469 L 32.417969 -0.664062 L 33.132812 13.832031 L 9.933594 14.976562 Z M 9.21875 0.480469 " clip-rule="nonzero"/></clipPath><clipPath id="aed7a5951a"><path d="M 9.21875 0.480469 L 32.417969 -0.664062 L 33.132812 13.832031 L 9.933594 14.976562 Z M 9.21875 0.480469 " clip-rule="nonzero"/></clipPath><clipPath id="e236483300"><path d="M 12 12 L 14 12 L 14 15 L 12 15 Z M 12 12 " clip-rule="nonzero"/></clipPath><clipPath id="24deef6751"><path d="M 9.21875 0.480469 L 32.417969 -0.664062 L 33.132812 13.832031 L 9.933594 14.976562 Z M 9.21875 0.480469 " clip-rule="nonzero"/></clipPath><clipPath id="08e2441947"><path d="M 9.21875 0.480469 L 32.417969 -0.664062 L 33.132812 13.832031 L 9.933594 14.976562 Z M 9.21875 0.480469 " clip-rule="nonzero"/></clipPath><clipPath id="891d7758b7"><path d="M 13 12 L 14 12 L 14 15 L 13 15 Z M 13 12 " clip-rule="nonzero"/></clipPath><clipPath id="71f7aeb839"><path d="M 9.21875 0.480469 L 32.417969 -0.664062 L 33.132812 13.832031 L 9.933594 14.976562 Z M 9.21875 0.480469 " clip-rule="nonzero"/></clipPath><clipPath id="0f0872cace"><path d="M 9.21875 0.480469 L 32.417969 -0.664062 L 33.132812 13.832031 L 9.933594 14.976562 Z M 9.21875 0.480469 " clip-rule="nonzero"/></clipPath><clipPath id="ef38c45b86"><path d="M 11 9 L 14 9 L 14 11 L 11 11 Z M 11 9 " clip-rule="nonzero"/></clipPath><clipPath id="e90a29e25a"><path d="M 9.21875 0.480469 L 32.417969 -0.664062 L 33.132812 13.832031 L 9.933594 14.976562 Z M 9.21875 0.480469 " clip-rule="nonzero"/></clipPath><clipPath id="eb8a170dda"><path d="M 9.21875 0.480469 L 32.417969 -0.664062 L 33.132812 13.832031 L 9.933594 14.976562 Z M 9.21875 0.480469 " clip-rule="nonzero"/></clipPath></defs><g clip-path="url(#846f7f524e)"><g clip-path="url(#6cd081b556)"><g clip-path="url(#7bc4082d4b)"><path fill="#0f0f0f" d="M 18.707031 9.183594 C 20.332031 8.9375 22.28125 8.96875 23.921875 9.265625 C 24.875 9.441406 26.414062 9.839844 26.917969 10.640625 C 26.914062 10.59375 26.902344 10.546875 26.882812 10.503906 C 26.878906 9.878906 26.878906 9.203125 26.875 8.507812 C 26.875 8.507812 26.875 8.511719 26.871094 8.511719 C 26.871094 7.960938 26.867188 7.398438 26.867188 6.84375 C 26.75 6.269531 25.652344 5.722656 23.992188 5.417969 C 22.363281 5.117188 20.425781 5.078125 18.804688 5.308594 C 17.019531 5.566406 15.8125 6.125 15.394531 6.875 C 15.382812 6.945312 15.363281 7.113281 15.371094 7.277344 C 15.382812 7.679688 15.402344 8.167969 15.414062 8.664062 C 15.414062 8.664062 15.410156 8.664062 15.40625 8.660156 C 15.433594 9.464844 15.445312 10.089844 15.449219 10.492188 C 15.953125 9.984375 16.90625 9.460938 18.707031 9.183594 " fill-opacity="1" fill-rule="nonzero"/></g></g></g><g clip-path="url(#a13ed0e07b)"><g clip-path="url(#f7cf3d44da)"><g clip-path="url(#d13609ab82)"><path fill="#0f0f0f" d="M 32.46875 4.648438 L 20.671875 -0.0664062 C 20.628906 -0.0859375 20.578125 -0.0820312 20.53125 -0.0585938 L 9.582031 5.613281 C 9.519531 5.648438 9.480469 5.71875 9.484375 5.792969 C 9.488281 5.867188 9.53125 5.933594 9.597656 5.964844 L 15.023438 8.28125 C 15.011719 7.949219 15 7.59375 14.984375 7.214844 C 14.976562 6.953125 15.015625 6.703125 15.019531 6.691406 L 15.023438 6.660156 L 15.039062 6.628906 C 15.367188 6.007812 16.277344 5.1875 18.75 4.832031 C 20.402344 4.589844 22.382812 4.632812 24.050781 4.941406 C 25.164062 5.144531 27.058594 5.648438 27.238281 6.710938 L 27.242188 6.730469 L 27.242188 6.75 C 27.242188 7.167969 27.246094 7.59375 27.246094 8.011719 L 32.492188 4.996094 C 32.550781 4.960938 32.589844 4.890625 32.582031 4.816406 C 32.578125 4.742188 32.53125 4.675781 32.46875 4.648438 " fill-opacity="1" fill-rule="nonzero"/></g></g></g><g clip-path="url(#7f6dc30b14)"><g clip-path="url(#16234a65fd)"><g clip-path="url(#faf028eacd)"><path fill="#8c52ff" d="M 12.742188 10.242188 L 12.386719 10.25 L 12.261719 6.25 L 12.617188 6.242188 L 12.742188 10.242188 " fill-opacity="1" fill-rule="nonzero"/></g></g></g><g clip-path="url(#5540529d97)"><g clip-path="url(#ddebf1c813)"><g clip-path="url(#d07e5c2da6)"><path fill="#5e17eb" d="M 12.324219 10.75 C 11.726562 11.644531 11.570312 12.832031 11.746094 14.253906 C 12.695312 14.976562 13.382812 14.914062 13.867188 14.253906 C 13.742188 11.511719 13.269531 10.167969 12.324219 10.75 " fill-opacity="1" fill-rule="evenodd"/></g></g></g><g clip-path="url(#b8d4c3c9a7)"><g clip-path="url(#28ce850813)"><g clip-path="url(#aed7a5951a)"><path fill="#8c52ff" d="M 12.363281 14.628906 L 12.148438 11.835938 L 12.011719 14.4375 C 12.132812 14.515625 12.25 14.578125 12.363281 14.628906 " fill-opacity="1" fill-rule="evenodd"/></g></g></g><g clip-path="url(#e236483300)"><g clip-path="url(#24deef6751)"><g clip-path="url(#08e2441947)"><path fill="#8c52ff" d="M 12.765625 13.066406 L 12.832031 14.253906 L 12.578125 12.710938 L 12.777344 14.683594 C 12.894531 14.714844 13 14.726562 13.101562 14.730469 L 13.113281 14.726562 L 12.765625 13.066406 " fill-opacity="1" fill-rule="evenodd"/></g></g></g><g clip-path="url(#891d7758b7)"><g clip-path="url(#71f7aeb839)"><g clip-path="url(#0f0872cace)"><path fill="#8c52ff" d="M 13.167969 12.019531 L 13.328125 14.703125 C 13.394531 14.675781 13.460938 14.640625 13.523438 14.597656 L 13.523438 13.296875 L 13.34375 13.21875 L 13.167969 12.019531 " fill-opacity="1" fill-rule="evenodd"/></g></g></g><g clip-path="url(#ef38c45b86)"><g clip-path="url(#e90a29e25a)"><g clip-path="url(#eb8a170dda)"><path fill="#8c52ff" d="M 12.664062 9.660156 C 13.035156 9.660156 13.332031 9.945312 13.332031 10.296875 C 13.332031 10.648438 13.03125 10.929688 12.664062 10.929688 C 12.292969 10.929688 11.992188 10.644531 11.992188 10.296875 C 11.992188 9.945312 12.292969 9.660156 12.664062 9.660156 " fill-opacity="1" fill-rule="evenodd"/></g></g></g><g fill="#000000" fill-opacity="1"><g transform="translate(13.075282, 28.52107)"><g><path d="M 10.8125 -10.75 C 11.3125 -10.601562 11.851562 -10.421875 12.4375 -10.203125 C 13.019531 -9.984375 13.5625 -9.691406 14.0625 -9.328125 C 14.570312 -8.960938 14.988281 -8.46875 15.3125 -7.84375 C 15.644531 -7.226562 15.8125 -6.441406 15.8125 -5.484375 C 15.8125 -4.148438 15.488281 -3.046875 14.84375 -2.171875 C 14.195312 -1.304688 13.3125 -0.65625 12.1875 -0.21875 C 11.0625 0.207031 9.773438 0.421875 8.328125 0.421875 C 7.441406 0.421875 6.550781 0.289062 5.65625 0.03125 C 4.769531 -0.21875 3.957031 -0.585938 3.21875 -1.078125 C 2.476562 -1.578125 1.882812 -2.203125 1.4375 -2.953125 C 0.988281 -3.703125 0.765625 -4.566406 0.765625 -5.546875 C 0.765625 -5.859375 0.816406 -6.066406 0.921875 -6.171875 C 1.035156 -6.273438 1.253906 -6.328125 1.578125 -6.328125 L 4.3125 -6.328125 C 4.625 -6.328125 4.863281 -6.285156 5.03125 -6.203125 C 5.207031 -6.117188 5.300781 -5.898438 5.3125 -5.546875 C 5.332031 -5.359375 5.378906 -5.171875 5.453125 -4.984375 C 5.535156 -4.796875 5.671875 -4.597656 5.859375 -4.390625 C 6.140625 -4.054688 6.535156 -3.816406 7.046875 -3.671875 C 7.566406 -3.535156 8.085938 -3.46875 8.609375 -3.46875 C 9.378906 -3.46875 10.03125 -3.585938 10.5625 -3.828125 C 11.101562 -4.066406 11.375 -4.582031 11.375 -5.375 C 11.375 -5.894531 11.128906 -6.273438 10.640625 -6.515625 C 10.148438 -6.765625 9.535156 -6.96875 8.796875 -7.125 C 8.054688 -7.289062 7.28125 -7.492188 6.46875 -7.734375 C 5.53125 -8.035156 4.644531 -8.390625 3.8125 -8.796875 C 2.976562 -9.210938 2.300781 -9.773438 1.78125 -10.484375 C 1.269531 -11.203125 1.015625 -12.15625 1.015625 -13.34375 C 1.015625 -14.5625 1.335938 -15.578125 1.984375 -16.390625 C 2.628906 -17.203125 3.476562 -17.816406 4.53125 -18.234375 C 5.582031 -18.660156 6.6875 -18.894531 7.84375 -18.9375 C 8.75 -18.9375 9.640625 -18.832031 10.515625 -18.625 C 11.398438 -18.414062 12.203125 -18.09375 12.921875 -17.65625 C 13.648438 -17.21875 14.234375 -16.664062 14.671875 -16 C 15.117188 -15.332031 15.34375 -14.53125 15.34375 -13.59375 C 15.34375 -13.25 15.285156 -13.03125 15.171875 -12.9375 C 15.054688 -12.84375 14.835938 -12.796875 14.515625 -12.796875 L 11.765625 -12.796875 C 11.503906 -12.796875 11.328125 -12.875 11.234375 -13.03125 C 11.148438 -13.195312 11.070312 -13.375 11 -13.5625 C 10.945312 -13.707031 10.878906 -13.84375 10.796875 -13.96875 C 10.710938 -14.09375 10.582031 -14.238281 10.40625 -14.40625 C 10.144531 -14.664062 9.789062 -14.859375 9.34375 -14.984375 C 8.894531 -15.109375 8.453125 -15.171875 8.015625 -15.171875 C 7.710938 -15.171875 7.363281 -15.125 6.96875 -15.03125 C 6.582031 -14.9375 6.25 -14.769531 5.96875 -14.53125 C 5.6875 -14.300781 5.546875 -13.96875 5.546875 -13.53125 C 5.546875 -13.101562 5.757812 -12.738281 6.1875 -12.4375 C 6.625 -12.132812 7.144531 -11.875 7.75 -11.65625 C 8.363281 -11.445312 8.957031 -11.269531 9.53125 -11.125 C 10.101562 -10.988281 10.53125 -10.863281 10.8125 -10.75 Z M 10.8125 -10.75 "/></g></g></g><g fill="#000000" fill-opacity="1"><g transform="translate(30.101307, 28.52107)"><g><path d="M 16.1875 -18.515625 C 16.445312 -18.515625 16.601562 -18.421875 16.65625 -18.234375 C 16.71875 -18.046875 16.707031 -17.878906 16.625 -17.734375 L 10.828125 -6.953125 L 10.828125 -0.8125 C 10.828125 -0.5 10.753906 -0.285156 10.609375 -0.171875 C 10.472656 -0.0546875 10.273438 0 10.015625 0 L 7.203125 0 C 6.941406 0 6.738281 -0.0546875 6.59375 -0.171875 C 6.457031 -0.285156 6.390625 -0.5 6.390625 -0.8125 L 6.390625 -6.953125 L 0.359375 -17.734375 C 0.285156 -17.878906 0.273438 -18.046875 0.328125 -18.234375 C 0.390625 -18.421875 0.550781 -18.515625 0.8125 -18.515625 L 4.046875 -18.515625 C 4.367188 -18.515625 4.625 -18.46875 4.8125 -18.375 C 5 -18.28125 5.1875 -18.046875 5.375 -17.671875 L 8.671875 -11.625 L 11.84375 -17.671875 C 12.03125 -18.046875 12.210938 -18.28125 12.390625 -18.375 C 12.566406 -18.46875 12.816406 -18.515625 13.140625 -18.515625 Z M 16.1875 -18.515625 "/></g></g></g><g fill="#000000" fill-opacity="1"><g transform="translate(47.09919, 28.52107)"><g><path d="M 16.296875 -18.515625 C 16.554688 -18.515625 16.753906 -18.457031 16.890625 -18.34375 C 17.035156 -18.226562 17.109375 -18.015625 17.109375 -17.703125 L 17.109375 -0.8125 C 17.109375 -0.570312 17.050781 -0.375 16.9375 -0.21875 C 16.820312 -0.0703125 16.609375 0 16.296875 0 L 13.734375 0 C 13.378906 0 13.125 -0.0859375 12.96875 -0.265625 C 12.820312 -0.441406 12.65625 -0.671875 12.46875 -0.953125 L 6.5 -10.609375 L 6.5 -0.8125 C 6.5 -0.5 6.425781 -0.285156 6.28125 -0.171875 C 6.144531 -0.0546875 5.945312 0 5.6875 0 L 2.90625 0 C 2.65625 0 2.453125 -0.0546875 2.296875 -0.171875 C 2.148438 -0.285156 2.078125 -0.5 2.078125 -0.8125 L 2.078125 -17.703125 C 2.078125 -17.960938 2.132812 -18.160156 2.25 -18.296875 C 2.363281 -18.441406 2.582031 -18.515625 2.90625 -18.515625 L 5.546875 -18.515625 C 5.898438 -18.515625 6.148438 -18.425781 6.296875 -18.25 C 6.453125 -18.070312 6.625 -17.84375 6.8125 -17.5625 L 12.78125 -7.9375 L 12.78125 -17.703125 C 12.78125 -18.015625 12.851562 -18.226562 13 -18.34375 C 13.144531 -18.457031 13.34375 -18.515625 13.59375 -18.515625 Z M 16.296875 -18.515625 "/></g></g></g><g fill="#000000" fill-opacity="1"><g transform="translate(66.292164, 28.52107)"><g><path d="M 15.5 -3.9375 C 15.820312 -3.9375 16.039062 -3.863281 16.15625 -3.71875 C 16.269531 -3.582031 16.328125 -3.382812 16.328125 -3.125 L 16.328125 -0.8125 C 16.328125 -0.570312 16.269531 -0.375 16.15625 -0.21875 C 16.039062 -0.0703125 15.820312 0 15.5 0 L 2.90625 0 C 2.582031 0 2.363281 -0.0703125 2.25 -0.21875 C 2.132812 -0.375 2.078125 -0.570312 2.078125 -0.8125 L 2.078125 -17.703125 C 2.078125 -17.960938 2.132812 -18.160156 2.25 -18.296875 C 2.363281 -18.441406 2.582031 -18.515625 2.90625 -18.515625 L 15.03125 -18.515625 C 15.34375 -18.515625 15.554688 -18.441406 15.671875 -18.296875 C 15.785156 -18.160156 15.84375 -17.960938 15.84375 -17.703125 L 15.84375 -15.359375 C 15.84375 -15.117188 15.785156 -14.921875 15.671875 -14.765625 C 15.554688 -14.617188 15.34375 -14.546875 15.03125 -14.546875 L 6.53125 -14.546875 L 6.53125 -11.484375 L 14.0625 -11.484375 C 14.382812 -11.484375 14.601562 -11.410156 14.71875 -11.265625 C 14.832031 -11.128906 14.890625 -10.929688 14.890625 -10.671875 L 14.890625 -8.46875 C 14.890625 -8.226562 14.832031 -8.03125 14.71875 -7.875 C 14.601562 -7.726562 14.382812 -7.65625 14.0625 -7.65625 L 6.53125 -7.65625 L 6.53125 -3.9375 Z M 15.5 -3.9375 "/></g></g></g><g fill="#000000" fill-opacity="1"><g transform="translate(83.937319, 28.52107)"><g><path d="M 17.25 -0.90625 C 17.382812 -0.71875 17.410156 -0.519531 17.328125 -0.3125 C 17.253906 -0.101562 17.085938 0 16.828125 0 L 13.5 0 C 13.164062 0 12.898438 -0.0625 12.703125 -0.1875 C 12.503906 -0.320312 12.300781 -0.539062 12.09375 -0.84375 L 9.0625 -5.375 C 8.925781 -5.539062 8.835938 -5.722656 8.796875 -5.921875 C 8.765625 -6.117188 8.75 -6.414062 8.75 -6.8125 L 8.75 -9.0625 C 8.75 -9.320312 8.804688 -9.519531 8.921875 -9.65625 C 9.035156 -9.800781 9.25 -9.875 9.5625 -9.875 L 10.125 -9.875 C 10.820312 -9.875 11.441406 -10.085938 11.984375 -10.515625 C 12.523438 -10.953125 12.796875 -11.5 12.796875 -12.15625 C 12.796875 -12.882812 12.546875 -13.460938 12.046875 -13.890625 C 11.554688 -14.328125 10.945312 -14.546875 10.21875 -14.546875 L 6.46875 -14.546875 L 6.46875 -0.8125 C 6.46875 -0.5 6.394531 -0.285156 6.25 -0.171875 C 6.113281 -0.0546875 5.914062 0 5.65625 0 L 2.875 0 C 2.625 0 2.425781 -0.0546875 2.28125 -0.171875 C 2.144531 -0.285156 2.078125 -0.5 2.078125 -0.8125 L 2.078125 -17.671875 C 2.078125 -17.929688 2.128906 -18.128906 2.234375 -18.265625 C 2.335938 -18.410156 2.550781 -18.484375 2.875 -18.484375 L 9.96875 -18.484375 C 11 -18.484375 11.847656 -18.414062 12.515625 -18.28125 C 13.191406 -18.15625 13.769531 -17.957031 14.25 -17.6875 C 14.726562 -17.414062 15.164062 -17.082031 15.5625 -16.6875 C 16.082031 -16.175781 16.484375 -15.535156 16.765625 -14.765625 C 17.046875 -14.003906 17.1875 -13.171875 17.1875 -12.265625 C 17.1875 -11.296875 16.976562 -10.425781 16.5625 -9.65625 C 16.15625 -8.882812 15.648438 -8.242188 15.046875 -7.734375 C 14.453125 -7.234375 13.863281 -6.878906 13.28125 -6.671875 Z M 17.25 -0.90625 "/></g></g></g><g fill="#000000" fill-opacity="1"><g transform="translate(102.680018, 28.52107)"><g><path d="M 15.84375 -10.328125 C 16.164062 -10.328125 16.378906 -10.253906 16.484375 -10.109375 C 16.597656 -9.972656 16.65625 -9.773438 16.65625 -9.515625 L 16.65625 -5.4375 C 16.601562 -4.414062 16.332031 -3.535156 15.84375 -2.796875 C 15.351562 -2.054688 14.734375 -1.453125 13.984375 -0.984375 C 13.234375 -0.515625 12.429688 -0.164062 11.578125 0.0625 C 10.722656 0.300781 9.894531 0.421875 9.09375 0.421875 C 8.257812 0.421875 7.398438 0.304688 6.515625 0.078125 C 5.640625 -0.140625 4.820312 -0.488281 4.0625 -0.96875 C 3.300781 -1.445312 2.6875 -2.078125 2.21875 -2.859375 C 1.75 -3.640625 1.515625 -4.582031 1.515625 -5.6875 L 1.515625 -12.609375 C 1.515625 -13.710938 1.75 -14.664062 2.21875 -15.46875 C 2.6875 -16.28125 3.300781 -16.9375 4.0625 -17.4375 C 4.820312 -17.945312 5.640625 -18.320312 6.515625 -18.5625 C 7.398438 -18.8125 8.257812 -18.9375 9.09375 -18.9375 C 9.96875 -18.9375 10.847656 -18.804688 11.734375 -18.546875 C 12.628906 -18.296875 13.445312 -17.925781 14.1875 -17.4375 C 14.9375 -16.957031 15.535156 -16.351562 15.984375 -15.625 C 16.429688 -14.90625 16.65625 -14.078125 16.65625 -13.140625 C 16.65625 -12.804688 16.597656 -12.59375 16.484375 -12.5 C 16.378906 -12.40625 16.164062 -12.359375 15.84375 -12.359375 L 13.109375 -12.359375 C 12.710938 -12.359375 12.492188 -12.46875 12.453125 -12.6875 C 12.421875 -12.914062 12.367188 -13.125 12.296875 -13.3125 C 12.148438 -13.738281 11.8125 -14.128906 11.28125 -14.484375 C 10.757812 -14.847656 10.03125 -15.03125 9.09375 -15.03125 C 8.164062 -15.03125 7.414062 -14.75 6.84375 -14.1875 C 6.28125 -13.625 6 -12.890625 6 -11.984375 L 6 -6.328125 C 6 -5.429688 6.28125 -4.734375 6.84375 -4.234375 C 7.414062 -3.734375 8.164062 -3.484375 9.09375 -3.484375 C 10.007812 -3.484375 10.757812 -3.710938 11.34375 -4.171875 C 11.925781 -4.640625 12.21875 -5.414062 12.21875 -6.5 L 9.6875 -6.5 C 9.363281 -6.5 9.144531 -6.570312 9.03125 -6.71875 C 8.914062 -6.875 8.859375 -7.070312 8.859375 -7.3125 L 8.859375 -9.515625 C 8.859375 -9.773438 8.914062 -9.972656 9.03125 -10.109375 C 9.144531 -10.253906 9.363281 -10.328125 9.6875 -10.328125 Z M 15.84375 -10.328125 "/></g></g></g><g fill="#000000" fill-opacity="1"><g transform="translate(120.859875, 28.52107)"><g><path d="M 16.1875 -18.515625 C 16.445312 -18.515625 16.601562 -18.421875 16.65625 -18.234375 C 16.71875 -18.046875 16.707031 -17.878906 16.625 -17.734375 L 10.828125 -6.953125 L 10.828125 -0.8125 C 10.828125 -0.5 10.753906 -0.285156 10.609375 -0.171875 C 10.472656 -0.0546875 10.273438 0 10.015625 0 L 7.203125 0 C 6.941406 0 6.738281 -0.0546875 6.59375 -0.171875 C 6.457031 -0.285156 6.390625 -0.5 6.390625 -0.8125 L 6.390625 -6.953125 L 0.359375 -17.734375 C 0.285156 -17.878906 0.273438 -18.046875 0.328125 -18.234375 C 0.390625 -18.421875 0.550781 -18.515625 0.8125 -18.515625 L 4.046875 -18.515625 C 4.367188 -18.515625 4.625 -18.46875 4.8125 -18.375 C 5 -18.28125 5.1875 -18.046875 5.375 -17.671875 L 8.671875 -11.625 L 11.84375 -17.671875 C 12.03125 -18.046875 12.210938 -18.28125 12.390625 -18.375 C 12.566406 -18.46875 12.816406 -18.515625 13.140625 -18.515625 Z M 16.1875 -18.515625 "/></g></g></g><g fill="#000000" fill-opacity="1"><g transform="translate(137.857754, 28.52107)"><g><path d="M 15.84375 -0.875 C 15.957031 -0.707031 15.976562 -0.519531 15.90625 -0.3125 C 15.84375 -0.101562 15.707031 0 15.5 0 L 12.296875 0 C 11.992188 0 11.765625 -0.0390625 11.609375 -0.125 C 11.453125 -0.207031 11.269531 -0.425781 11.0625 -0.78125 L 8.265625 -5.796875 L 5.453125 -0.78125 C 5.265625 -0.425781 5.09375 -0.207031 4.9375 -0.125 C 4.78125 -0.0390625 4.539062 0 4.21875 0 L 1.015625 0 C 0.804688 0 0.664062 -0.101562 0.59375 -0.3125 C 0.53125 -0.519531 0.554688 -0.707031 0.671875 -0.875 L 5.6875 -9.484375 L 0.59375 -17.734375 C 0.519531 -17.878906 0.507812 -18.046875 0.5625 -18.234375 C 0.613281 -18.421875 0.765625 -18.515625 1.015625 -18.515625 L 4.328125 -18.515625 C 4.597656 -18.515625 4.804688 -18.453125 4.953125 -18.328125 C 5.097656 -18.210938 5.265625 -18.003906 5.453125 -17.703125 L 8.265625 -13.171875 L 11.0625 -17.703125 C 11.269531 -18.003906 11.441406 -18.210938 11.578125 -18.328125 C 11.722656 -18.453125 11.9375 -18.515625 12.21875 -18.515625 L 15.5 -18.515625 C 15.75 -18.515625 15.90625 -18.421875 15.96875 -18.234375 C 16.03125 -18.046875 16.015625 -17.878906 15.921875 -17.734375 L 10.859375 -9.484375 Z M 15.84375 -0.875 "/></g></g></g><g fill="#000000" fill-opacity="1"><g transform="translate(96.803029, 9.032089)"><g><path d="M 8.28125 -0.359375 C 8.3125 -0.285156 8.316406 -0.207031 8.296875 -0.125 C 8.285156 -0.0390625 8.207031 0 8.0625 0 L 6.703125 0 C 6.566406 0 6.460938 -0.0234375 6.390625 -0.078125 C 6.316406 -0.128906 6.253906 -0.234375 6.203125 -0.390625 L 5.84375 -1.40625 L 2.671875 -1.40625 L 2.3125 -0.390625 C 2.257812 -0.234375 2.203125 -0.128906 2.140625 -0.078125 C 2.078125 -0.0234375 1.972656 0 1.828125 0 L 0.46875 0 C 0.332031 0 0.25 -0.0390625 0.21875 -0.125 C 0.195312 -0.207031 0.207031 -0.285156 0.25 -0.359375 L 3.125 -8.109375 C 3.175781 -8.242188 3.238281 -8.34375 3.3125 -8.40625 C 3.394531 -8.476562 3.503906 -8.515625 3.640625 -8.515625 L 4.890625 -8.515625 C 5.035156 -8.515625 5.144531 -8.476562 5.21875 -8.40625 C 5.289062 -8.34375 5.359375 -8.242188 5.421875 -8.109375 Z M 4.265625 -6.078125 L 3.296875 -3.21875 L 5.234375 -3.21875 Z M 4.265625 -6.078125 "/></g></g></g><g fill="#000000" fill-opacity="1"><g transform="translate(105.273407, 9.032089)"><g><path d="M 7.515625 -2.515625 C 7.515625 -2.109375 7.414062 -1.734375 7.21875 -1.390625 C 7.019531 -1.054688 6.757812 -0.769531 6.4375 -0.53125 C 6.113281 -0.300781 5.753906 -0.125 5.359375 0 C 4.960938 0.125 4.5625 0.1875 4.15625 0.1875 C 3.769531 0.1875 3.375 0.128906 2.96875 0.015625 C 2.5625 -0.0976562 2.179688 -0.269531 1.828125 -0.5 C 1.484375 -0.738281 1.207031 -1.039062 1 -1.40625 C 0.789062 -1.78125 0.6875 -2.222656 0.6875 -2.734375 L 0.6875 -5.78125 C 0.6875 -6.289062 0.789062 -6.726562 1 -7.09375 C 1.207031 -7.457031 1.484375 -7.757812 1.828125 -8 C 2.179688 -8.238281 2.5625 -8.414062 2.96875 -8.53125 C 3.375 -8.644531 3.769531 -8.703125 4.15625 -8.703125 C 4.6875 -8.703125 5.195312 -8.609375 5.6875 -8.421875 C 6.1875 -8.242188 6.601562 -7.972656 6.9375 -7.609375 C 7.269531 -7.253906 7.460938 -6.800781 7.515625 -6.25 C 7.515625 -6.09375 7.484375 -5.988281 7.421875 -5.9375 C 7.359375 -5.894531 7.253906 -5.875 7.109375 -5.875 L 5.875 -5.875 C 5.738281 -5.875 5.648438 -5.921875 5.609375 -6.015625 C 5.578125 -6.109375 5.535156 -6.195312 5.484375 -6.28125 C 5.347656 -6.488281 5.179688 -6.640625 4.984375 -6.734375 C 4.785156 -6.835938 4.507812 -6.890625 4.15625 -6.890625 C 3.726562 -6.890625 3.378906 -6.773438 3.109375 -6.546875 C 2.847656 -6.316406 2.71875 -6.003906 2.71875 -5.609375 L 2.71875 -2.90625 C 2.71875 -2.5 2.847656 -2.179688 3.109375 -1.953125 C 3.378906 -1.734375 3.726562 -1.625 4.15625 -1.625 C 4.507812 -1.625 4.8125 -1.691406 5.0625 -1.828125 C 5.3125 -1.960938 5.460938 -2.1875 5.515625 -2.5 C 5.523438 -2.625 5.550781 -2.734375 5.59375 -2.828125 C 5.632812 -2.921875 5.722656 -2.96875 5.859375 -2.96875 L 7.125 -2.96875 C 7.382812 -2.96875 7.515625 -2.816406 7.515625 -2.515625 Z M 7.515625 -2.515625 "/></g></g></g><g fill="#000000" fill-opacity="1"><g transform="translate(113.446352, 9.032089)"><g><path d="M 8.28125 -0.359375 C 8.3125 -0.285156 8.316406 -0.207031 8.296875 -0.125 C 8.285156 -0.0390625 8.207031 0 8.0625 0 L 6.703125 0 C 6.566406 0 6.460938 -0.0234375 6.390625 -0.078125 C 6.316406 -0.128906 6.253906 -0.234375 6.203125 -0.390625 L 5.84375 -1.40625 L 2.671875 -1.40625 L 2.3125 -0.390625 C 2.257812 -0.234375 2.203125 -0.128906 2.140625 -0.078125 C 2.078125 -0.0234375 1.972656 0 1.828125 0 L 0.46875 0 C 0.332031 0 0.25 -0.0390625 0.21875 -0.125 C 0.195312 -0.207031 0.207031 -0.285156 0.25 -0.359375 L 3.125 -8.109375 C 3.175781 -8.242188 3.238281 -8.34375 3.3125 -8.40625 C 3.394531 -8.476562 3.503906 -8.515625 3.640625 -8.515625 L 4.890625 -8.515625 C 5.035156 -8.515625 5.144531 -8.476562 5.21875 -8.40625 C 5.289062 -8.34375 5.359375 -8.242188 5.421875 -8.109375 Z M 4.265625 -6.078125 L 3.296875 -3.21875 L 5.234375 -3.21875 Z M 4.265625 -6.078125 "/></g></g></g><g fill="#000000" fill-opacity="1"><g transform="translate(121.916731, 9.032089)"><g><path d="M 4.234375 -8.515625 C 4.617188 -8.515625 5.015625 -8.453125 5.421875 -8.328125 C 5.828125 -8.210938 6.203125 -8.039062 6.546875 -7.8125 C 6.890625 -7.582031 7.164062 -7.28125 7.375 -6.90625 C 7.59375 -6.539062 7.703125 -6.109375 7.703125 -5.609375 L 7.703125 -2.90625 C 7.703125 -2.394531 7.59375 -1.957031 7.375 -1.59375 C 7.164062 -1.226562 6.890625 -0.925781 6.546875 -0.6875 C 6.203125 -0.457031 5.828125 -0.285156 5.421875 -0.171875 C 5.015625 -0.0546875 4.617188 0 4.234375 0 L 1.328125 0 C 1.179688 0 1.082031 -0.03125 1.03125 -0.09375 C 0.976562 -0.164062 0.953125 -0.257812 0.953125 -0.375 L 0.953125 -8.140625 C 0.953125 -8.253906 0.976562 -8.34375 1.03125 -8.40625 C 1.082031 -8.476562 1.179688 -8.515625 1.328125 -8.515625 Z M 5.671875 -5.421875 C 5.671875 -5.828125 5.535156 -6.144531 5.265625 -6.375 C 5.003906 -6.601562 4.660156 -6.71875 4.234375 -6.71875 L 2.984375 -6.71875 L 2.984375 -1.796875 L 4.234375 -1.796875 C 4.660156 -1.796875 5.003906 -1.90625 5.265625 -2.125 C 5.535156 -2.351562 5.671875 -2.675781 5.671875 -3.09375 Z M 5.671875 -5.421875 "/></g></g></g><g fill="#000000" fill-opacity="1"><g transform="translate(130.322451, 9.032089)"><g><path d="M 7.125 -1.8125 C 7.269531 -1.8125 7.367188 -1.78125 7.421875 -1.71875 C 7.472656 -1.65625 7.5 -1.5625 7.5 -1.4375 L 7.5 -0.375 C 7.5 -0.257812 7.472656 -0.164062 7.421875 -0.09375 C 7.367188 -0.03125 7.269531 0 7.125 0 L 1.328125 0 C 1.179688 0 1.082031 -0.03125 1.03125 -0.09375 C 0.976562 -0.164062 0.953125 -0.257812 0.953125 -0.375 L 0.953125 -8.140625 C 0.953125 -8.253906 0.976562 -8.34375 1.03125 -8.40625 C 1.082031 -8.476562 1.179688 -8.515625 1.328125 -8.515625 L 6.90625 -8.515625 C 7.050781 -8.515625 7.148438 -8.476562 7.203125 -8.40625 C 7.253906 -8.34375 7.28125 -8.253906 7.28125 -8.140625 L 7.28125 -7.0625 C 7.28125 -6.945312 7.253906 -6.851562 7.203125 -6.78125 C 7.148438 -6.71875 7.050781 -6.6875 6.90625 -6.6875 L 3 -6.6875 L 3 -5.28125 L 6.46875 -5.28125 C 6.613281 -5.28125 6.710938 -5.242188 6.765625 -5.171875 C 6.816406 -5.109375 6.84375 -5.019531 6.84375 -4.90625 L 6.84375 -3.890625 C 6.84375 -3.773438 6.816406 -3.679688 6.765625 -3.609375 C 6.710938 -3.546875 6.613281 -3.515625 6.46875 -3.515625 L 3 -3.515625 L 3 -1.8125 Z M 7.125 -1.8125 "/></g></g></g><g fill="#000000" fill-opacity="1"><g transform="translate(138.430736, 9.032089)"><g><path d="M 8.59375 -8.53125 C 8.738281 -8.53125 8.835938 -8.492188 8.890625 -8.421875 C 8.941406 -8.359375 8.96875 -8.269531 8.96875 -8.15625 L 8.96875 -0.375 C 8.96875 -0.226562 8.929688 -0.128906 8.859375 -0.078125 C 8.796875 -0.0234375 8.707031 0 8.59375 0 L 7.34375 0 C 7.238281 0 7.148438 -0.0234375 7.078125 -0.078125 C 7.003906 -0.128906 6.96875 -0.226562 6.96875 -0.375 L 6.96875 -4.765625 L 5.671875 -2.5 C 5.640625 -2.445312 5.59375 -2.382812 5.53125 -2.3125 C 5.476562 -2.25 5.398438 -2.21875 5.296875 -2.21875 L 4.65625 -2.21875 C 4.5625 -2.21875 4.484375 -2.25 4.421875 -2.3125 C 4.367188 -2.382812 4.328125 -2.445312 4.296875 -2.5 L 2.984375 -4.765625 L 2.984375 -0.375 C 2.984375 -0.226562 2.953125 -0.128906 2.890625 -0.078125 C 2.828125 -0.0234375 2.734375 0 2.609375 0 L 1.328125 0 C 1.222656 0 1.132812 -0.0234375 1.0625 -0.078125 C 0.988281 -0.128906 0.953125 -0.226562 0.953125 -0.375 L 0.953125 -8.15625 C 0.953125 -8.269531 0.976562 -8.359375 1.03125 -8.421875 C 1.082031 -8.492188 1.179688 -8.53125 1.328125 -8.53125 L 2.609375 -8.53125 C 2.835938 -8.53125 2.976562 -8.472656 3.03125 -8.359375 C 3.09375 -8.253906 3.148438 -8.164062 3.203125 -8.09375 L 4.984375 -4.90625 L 6.765625 -8.09375 C 6.804688 -8.164062 6.859375 -8.253906 6.921875 -8.359375 C 6.992188 -8.472656 7.132812 -8.53125 7.34375 -8.53125 Z M 8.59375 -8.53125 "/></g></g></g><g fill="#000000" fill-opacity="1"><g transform="translate(148.349483, 9.032089)"><g><path d="M 7.4375 -8.515625 C 7.5625 -8.515625 7.632812 -8.46875 7.65625 -8.375 C 7.6875 -8.289062 7.679688 -8.21875 7.640625 -8.15625 L 4.984375 -3.203125 L 4.984375 -0.375 C 4.984375 -0.226562 4.945312 -0.128906 4.875 -0.078125 C 4.8125 -0.0234375 4.722656 0 4.609375 0 L 3.3125 0 C 3.1875 0 3.09375 -0.0234375 3.03125 -0.078125 C 2.96875 -0.128906 2.9375 -0.226562 2.9375 -0.375 L 2.9375 -3.203125 L 0.171875 -8.15625 C 0.128906 -8.21875 0.117188 -8.289062 0.140625 -8.375 C 0.171875 -8.46875 0.25 -8.515625 0.375 -8.515625 L 1.859375 -8.515625 C 2.003906 -8.515625 2.117188 -8.492188 2.203125 -8.453125 C 2.296875 -8.410156 2.382812 -8.300781 2.46875 -8.125 L 3.984375 -5.34375 L 5.453125 -8.125 C 5.535156 -8.300781 5.617188 -8.410156 5.703125 -8.453125 C 5.785156 -8.492188 5.898438 -8.515625 6.046875 -8.515625 Z M 7.4375 -8.515625 "/></g></g></g></svg>